<svg xmlns="http://www.w3.org/2000/svg" xmlns:xlink="http://www.w3.org/1999/xlink" width="184" zoomAndPan="magnify" viewBox="0 0 138 30.000001" height="40" preserveAspectRatio="xMidYMid meet" version="1.0"><defs><g/><clipPath id="786d7386aa"><path d="M 9 1 L 17 1 L 17 24 L 9 24 Z M 9 1 " clip-rule="nonzero"/></clipPath><clipPath id="978de70911"><path d="M 23.523438 6.613281 L 13.859375 24.492188 L 1.726562 17.933594 L 11.394531 0.0546875 Z M 23.523438 6.613281 " clip-rule="nonzero"/></clipPath><clipPath id="36ef1a913e"><path d="M 23.523438 6.613281 L 13.859375 24.492188 L 1.726562 17.933594 L 11.394531 0.0546875 Z M 23.523438 6.613281 " clip-rule="nonzero"/></clipPath></defs><g fill="#ffffff" fill-opacity="1"><g transform="translate(16.358422, 22.20627)"><g><path d="M 1.859375 -9.0625 C 1.671875 -9.0625 1.519531 -9.09375 1.40625 -9.15625 C 1.289062 -9.226562 1.195312 -9.304688 1.125 -9.390625 C 1.050781 -9.484375 1 -9.570312 0.96875 -9.65625 C 0.9375 -9.75 0.921875 -9.835938 0.921875 -9.921875 C 0.921875 -9.972656 0.9375 -10.046875 0.96875 -10.140625 C 1 -10.242188 1.046875 -10.335938 1.109375 -10.421875 C 1.179688 -10.515625 1.273438 -10.585938 1.390625 -10.640625 C 1.515625 -10.703125 1.671875 -10.734375 1.859375 -10.734375 L 3.5625 -10.734375 C 3.832031 -10.734375 4.035156 -10.671875 4.171875 -10.546875 C 4.304688 -10.429688 4.390625 -10.316406 4.421875 -10.203125 C 4.460938 -10.085938 4.484375 -9.976562 4.484375 -9.875 C 4.492188 -9.820312 4.5 -9.773438 4.5 -9.734375 C 4.5 -9.691406 4.5 -9.65625 4.5 -9.625 C 4.5 -9.019531 4.503906 -8.414062 4.515625 -7.8125 C 4.535156 -7.21875 4.5625 -6.617188 4.59375 -6.015625 C 4.613281 -5.359375 4.640625 -4.691406 4.671875 -4.015625 C 4.710938 -3.347656 4.753906 -2.679688 4.796875 -2.015625 C 5.023438 -2.148438 5.207031 -2.335938 5.34375 -2.578125 C 5.488281 -2.816406 5.597656 -3.070312 5.671875 -3.34375 L 6.53125 -6.703125 C 6.5625 -6.828125 6.648438 -6.960938 6.796875 -7.109375 C 6.941406 -7.265625 7.160156 -7.34375 7.453125 -7.34375 C 7.734375 -7.34375 7.945312 -7.265625 8.09375 -7.109375 C 8.238281 -6.960938 8.332031 -6.828125 8.375 -6.703125 L 9.359375 -2.8125 C 9.410156 -2.625 9.535156 -2.460938 9.734375 -2.328125 C 9.929688 -2.191406 10.160156 -2.082031 10.421875 -2 C 10.421875 -3.332031 10.410156 -4.65625 10.390625 -5.96875 C 10.378906 -7.289062 10.375 -8.617188 10.375 -9.953125 C 10.375 -10.015625 10.382812 -10.09375 10.40625 -10.1875 C 10.4375 -10.289062 10.488281 -10.382812 10.5625 -10.46875 C 10.632812 -10.550781 10.726562 -10.625 10.84375 -10.6875 C 10.96875 -10.75 11.125 -10.78125 11.3125 -10.78125 C 11.539062 -10.78125 11.722656 -10.726562 11.859375 -10.625 C 11.992188 -10.53125 12.09375 -10.425781 12.15625 -10.3125 L 12.203125 -10.3125 L 12.265625 -9.96875 L 12.265625 -9.84375 L 12.28125 -9.4375 C 12.289062 -9.070312 12.296875 -8.703125 12.296875 -8.328125 C 12.296875 -7.960938 12.296875 -7.597656 12.296875 -7.234375 C 12.304688 -6.273438 12.316406 -5.320312 12.328125 -4.375 C 12.335938 -3.425781 12.34375 -2.476562 12.34375 -1.53125 C 12.34375 -1.488281 12.34375 -1.445312 12.34375 -1.40625 C 12.351562 -1.375 12.359375 -1.328125 12.359375 -1.265625 C 12.359375 -1.203125 12.351562 -1.132812 12.34375 -1.0625 C 12.34375 -0.988281 12.332031 -0.921875 12.3125 -0.859375 C 12.300781 -0.796875 12.273438 -0.722656 12.234375 -0.640625 C 12.203125 -0.554688 12.148438 -0.476562 12.078125 -0.40625 C 12.003906 -0.332031 11.910156 -0.269531 11.796875 -0.21875 C 11.691406 -0.164062 11.554688 -0.140625 11.390625 -0.140625 L 11.328125 -0.140625 C 10.898438 -0.179688 10.476562 -0.253906 10.0625 -0.359375 C 9.644531 -0.460938 9.265625 -0.601562 8.921875 -0.78125 C 8.578125 -0.96875 8.28125 -1.195312 8.03125 -1.46875 C 7.789062 -1.75 7.625 -2.070312 7.53125 -2.4375 C 7.519531 -2.488281 7.503906 -2.535156 7.484375 -2.578125 C 7.472656 -2.628906 7.460938 -2.675781 7.453125 -2.71875 C 7.359375 -2.425781 7.21875 -2.125 7.03125 -1.8125 C 6.84375 -1.507812 6.609375 -1.234375 6.328125 -0.984375 C 6.046875 -0.734375 5.710938 -0.523438 5.328125 -0.359375 C 4.941406 -0.203125 4.492188 -0.125 3.984375 -0.125 C 3.898438 -0.125 3.835938 -0.128906 3.796875 -0.140625 C 3.703125 -0.140625 3.582031 -0.171875 3.4375 -0.234375 C 3.40625 -0.265625 3.375 -0.285156 3.34375 -0.296875 C 3.320312 -0.304688 3.300781 -0.320312 3.28125 -0.34375 C 3.257812 -0.363281 3.226562 -0.390625 3.1875 -0.421875 C 3.132812 -0.460938 3.085938 -0.535156 3.046875 -0.640625 C 3.023438 -0.710938 3.015625 -0.773438 3.015625 -0.828125 C 2.984375 -0.898438 2.960938 -0.976562 2.953125 -1.0625 C 2.953125 -1.144531 2.945312 -1.238281 2.9375 -1.34375 C 2.914062 -1.550781 2.894531 -1.78125 2.875 -2.03125 C 2.851562 -2.28125 2.835938 -2.539062 2.828125 -2.8125 C 2.816406 -3.0625 2.800781 -3.316406 2.78125 -3.578125 C 2.757812 -3.835938 2.742188 -4.066406 2.734375 -4.265625 C 2.734375 -4.472656 2.726562 -4.644531 2.71875 -4.78125 C 2.71875 -4.925781 2.71875 -5.015625 2.71875 -5.046875 C 2.675781 -5.722656 2.640625 -6.394531 2.609375 -7.0625 C 2.585938 -7.726562 2.582031 -8.394531 2.59375 -9.0625 Z M 1.859375 -9.0625 "/></g></g></g><g fill="#ffffff" fill-opacity="1"><g transform="translate(32.372152, 22.279721)"><g><path d="M -8.640625 -14.890625 C -8.640625 -14.953125 -8.628906 -15.015625 -8.609375 -15.078125 C -8.597656 -15.148438 -8.5625 -15.21875 -8.5 -15.28125 C -8.4375 -15.351562 -8.347656 -15.414062 -8.234375 -15.46875 C -8.128906 -15.53125 -7.992188 -15.5625 -7.828125 -15.5625 C -7.628906 -15.5625 -7.46875 -15.523438 -7.34375 -15.453125 C -7.226562 -15.390625 -7.144531 -15.320312 -7.09375 -15.25 C -6.96875 -15.09375 -6.914062 -14.941406 -6.9375 -14.796875 L -6.984375 -13.96875 L -6.609375 -13.96875 L -6.546875 -14.828125 C -6.546875 -14.878906 -6.53125 -14.941406 -6.5 -15.015625 C -6.476562 -15.097656 -6.429688 -15.175781 -6.359375 -15.25 C -6.296875 -15.320312 -6.207031 -15.382812 -6.09375 -15.4375 C -5.988281 -15.488281 -5.847656 -15.515625 -5.671875 -15.515625 C -5.460938 -15.515625 -5.304688 -15.472656 -5.203125 -15.390625 C -5.097656 -15.316406 -5.019531 -15.25 -4.96875 -15.1875 C -4.851562 -15.050781 -4.804688 -14.90625 -4.828125 -14.75 L -4.890625 -13.75 C -4.773438 -13.675781 -4.695312 -13.585938 -4.65625 -13.484375 C -4.625 -13.378906 -4.609375 -13.289062 -4.609375 -13.21875 C -4.609375 -13.175781 -4.617188 -13.113281 -4.640625 -13.03125 C -4.671875 -12.945312 -4.71875 -12.863281 -4.78125 -12.78125 C -4.851562 -12.707031 -4.945312 -12.640625 -5.0625 -12.578125 C -5.175781 -12.515625 -5.316406 -12.484375 -5.484375 -12.484375 L -10.421875 -12.578125 C -10.609375 -12.578125 -10.753906 -12.609375 -10.859375 -12.671875 C -10.972656 -12.742188 -11.0625 -12.816406 -11.125 -12.890625 C -11.21875 -13.023438 -11.265625 -13.164062 -11.265625 -13.3125 C -11.265625 -13.363281 -11.253906 -13.425781 -11.234375 -13.5 C -11.210938 -13.582031 -11.164062 -13.660156 -11.09375 -13.734375 C -11.03125 -13.816406 -10.941406 -13.882812 -10.828125 -13.9375 C -10.722656 -14 -10.578125 -14.03125 -10.390625 -14.03125 L -8.71875 -13.984375 Z M -8.640625 -14.890625 "/></g></g></g><g fill="#ffffff" fill-opacity="1"><g transform="translate(31.453936, 23.950874)"><g><path d="M -4.515625 -19.734375 C -4.578125 -19.835938 -4.617188 -19.9375 -4.640625 -20.03125 C -4.671875 -20.125 -4.691406 -20.207031 -4.703125 -20.28125 L -4.734375 -22.75 C -4.734375 -22.832031 -4.722656 -22.921875 -4.703125 -23.015625 C -4.691406 -23.117188 -4.65625 -23.21875 -4.59375 -23.3125 C -4.53125 -23.414062 -4.4375 -23.507812 -4.3125 -23.59375 C -4.1875 -23.6875 -4.007812 -23.734375 -3.78125 -23.734375 C -3.5625 -23.734375 -3.382812 -23.6875 -3.25 -23.59375 C -3.125 -23.507812 -3.03125 -23.414062 -2.96875 -23.3125 C -2.90625 -23.226562 -2.859375 -23.132812 -2.828125 -23.03125 C -2.804688 -22.9375 -2.796875 -22.851562 -2.796875 -22.78125 L -2.75 -20.28125 C -2.75 -20.207031 -2.757812 -20.125 -2.78125 -20.03125 C -2.800781 -19.945312 -2.84375 -19.851562 -2.90625 -19.75 C -2.96875 -19.65625 -3.0625 -19.554688 -3.1875 -19.453125 C -3.3125 -19.359375 -3.484375 -19.316406 -3.703125 -19.328125 C -3.941406 -19.316406 -4.117188 -19.359375 -4.234375 -19.453125 C -4.359375 -19.554688 -4.453125 -19.648438 -4.515625 -19.734375 Z M -4.515625 -19.734375 "/></g></g></g><g fill="#ffffff" fill-opacity="1"><g transform="translate(31.10063, 22.20627)"><g><path d="M 3.1875 -1.71875 C 3.882812 -1.738281 4.582031 -1.75 5.28125 -1.75 C 5.976562 -1.75 6.6875 -1.75 7.40625 -1.75 C 7.4375 -2.96875 7.453125 -4.179688 7.453125 -5.390625 C 7.453125 -6.609375 7.457031 -7.828125 7.46875 -9.046875 C 6.53125 -9.054688 5.597656 -9.0625 4.671875 -9.0625 C 3.742188 -9.0625 2.804688 -9.0625 1.859375 -9.0625 C 1.671875 -9.0625 1.515625 -9.09375 1.390625 -9.15625 C 1.273438 -9.226562 1.179688 -9.3125 1.109375 -9.40625 C 1.046875 -9.5 1 -9.59375 0.96875 -9.6875 C 0.9375 -9.789062 0.921875 -9.875 0.921875 -9.9375 C 0.921875 -10 0.9375 -10.070312 0.96875 -10.15625 C 1 -10.25 1.050781 -10.34375 1.125 -10.4375 C 1.195312 -10.53125 1.289062 -10.609375 1.40625 -10.671875 C 1.519531 -10.734375 1.671875 -10.765625 1.859375 -10.765625 C 2.460938 -10.765625 3.066406 -10.765625 3.671875 -10.765625 C 4.273438 -10.773438 4.890625 -10.78125 5.515625 -10.78125 C 5.847656 -10.78125 6.1875 -10.78125 6.53125 -10.78125 C 6.875 -10.78125 7.222656 -10.773438 7.578125 -10.765625 L 8 -10.765625 C 8.101562 -10.765625 8.195312 -10.765625 8.28125 -10.765625 C 8.363281 -10.765625 8.445312 -10.753906 8.53125 -10.734375 C 8.832031 -10.691406 9.046875 -10.585938 9.171875 -10.421875 C 9.304688 -10.265625 9.375 -10.097656 9.375 -9.921875 C 9.375 -9.867188 9.375 -9.703125 9.375 -9.421875 C 9.375 -9.140625 9.375 -8.78125 9.375 -8.34375 C 9.375 -7.90625 9.367188 -7.414062 9.359375 -6.875 C 9.359375 -6.34375 9.351562 -5.796875 9.34375 -5.234375 C 9.34375 -4.679688 9.335938 -4.140625 9.328125 -3.609375 C 9.328125 -3.078125 9.320312 -2.601562 9.3125 -2.1875 C 9.300781 -1.976562 9.296875 -1.785156 9.296875 -1.609375 C 9.296875 -1.441406 9.285156 -1.289062 9.265625 -1.15625 C 9.265625 -1 9.257812 -0.890625 9.25 -0.828125 C 9.238281 -0.753906 9.226562 -0.695312 9.21875 -0.65625 C 9.207031 -0.625 9.195312 -0.59375 9.1875 -0.5625 C 9.164062 -0.539062 9.148438 -0.519531 9.140625 -0.5 C 9.128906 -0.488281 9.113281 -0.46875 9.09375 -0.4375 C 9.0625 -0.414062 9.035156 -0.390625 9.015625 -0.359375 C 9.003906 -0.335938 8.976562 -0.316406 8.9375 -0.296875 C 8.863281 -0.234375 8.773438 -0.179688 8.671875 -0.140625 C 8.578125 -0.109375 8.457031 -0.09375 8.3125 -0.09375 C 7.300781 -0.09375 6.289062 -0.0859375 5.28125 -0.078125 C 4.28125 -0.0664062 3.265625 -0.0625 2.234375 -0.0625 C 2.054688 -0.0625 1.90625 -0.0859375 1.78125 -0.140625 C 1.65625 -0.203125 1.554688 -0.28125 1.484375 -0.375 C 1.421875 -0.46875 1.375 -0.5625 1.34375 -0.65625 C 1.3125 -0.75 1.296875 -0.832031 1.296875 -0.90625 L 1.296875 -5.5625 C 1.296875 -5.625 1.3125 -5.703125 1.34375 -5.796875 C 1.375 -5.898438 1.429688 -5.992188 1.515625 -6.078125 C 1.597656 -6.171875 1.703125 -6.25 1.828125 -6.3125 C 1.953125 -6.375 2.109375 -6.398438 2.296875 -6.390625 L 4.046875 -6.328125 C 4.398438 -6.304688 4.632812 -6.191406 4.75 -5.984375 C 4.875 -5.773438 4.9375 -5.601562 4.9375 -5.46875 C 4.9375 -5.40625 4.914062 -5.320312 4.875 -5.21875 C 4.84375 -5.125 4.789062 -5.035156 4.71875 -4.953125 C 4.644531 -4.867188 4.546875 -4.796875 4.421875 -4.734375 C 4.296875 -4.679688 4.144531 -4.65625 3.96875 -4.65625 L 3.1875 -4.6875 Z M 3.1875 -1.71875 "/></g></g></g><g fill="#ffffff" fill-opacity="1"><g transform="translate(42.795255, 22.20627)"><g><path d="M 7.875 -9.953125 C 7.875 -10.015625 7.882812 -10.09375 7.90625 -10.1875 C 7.9375 -10.289062 7.988281 -10.382812 8.0625 -10.46875 C 8.132812 -10.5625 8.226562 -10.640625 8.34375 -10.703125 C 8.46875 -10.773438 8.625 -10.8125 8.8125 -10.8125 C 9 -10.8125 9.148438 -10.78125 9.265625 -10.71875 C 9.390625 -10.65625 9.488281 -10.578125 9.5625 -10.484375 C 9.632812 -10.398438 9.6875 -10.3125 9.71875 -10.21875 C 9.75 -10.125 9.765625 -10.039062 9.765625 -9.96875 L 9.859375 -4.796875 C 9.921875 -4.804688 9.984375 -4.816406 10.046875 -4.828125 C 10.109375 -4.835938 10.164062 -4.84375 10.21875 -4.84375 C 10.320312 -4.882812 10.441406 -4.90625 10.578125 -4.90625 C 10.773438 -4.90625 10.929688 -4.867188 11.046875 -4.796875 C 11.171875 -4.734375 11.265625 -4.65625 11.328125 -4.5625 C 11.398438 -4.46875 11.445312 -4.375 11.46875 -4.28125 C 11.5 -4.195312 11.515625 -4.125 11.515625 -4.0625 C 11.515625 -3.675781 11.28125 -3.410156 10.8125 -3.265625 C 10.75 -3.253906 10.6875 -3.242188 10.625 -3.234375 C 10.5625 -3.222656 10.503906 -3.207031 10.453125 -3.1875 C 10.347656 -3.164062 10.253906 -3.140625 10.171875 -3.109375 C 10.085938 -3.085938 9.992188 -3.066406 9.890625 -3.046875 L 9.9375 -0.953125 C 9.9375 -0.890625 9.921875 -0.804688 9.890625 -0.703125 C 9.859375 -0.609375 9.804688 -0.515625 9.734375 -0.421875 C 9.660156 -0.335938 9.5625 -0.265625 9.4375 -0.203125 C 9.3125 -0.140625 9.160156 -0.109375 8.984375 -0.109375 C 8.796875 -0.109375 8.640625 -0.140625 8.515625 -0.203125 C 8.390625 -0.265625 8.296875 -0.335938 8.234375 -0.421875 C 8.171875 -0.503906 8.125 -0.59375 8.09375 -0.6875 C 8.0625 -0.789062 8.046875 -0.875 8.046875 -0.9375 L 8 -2.40625 C 7.445312 -2.195312 6.914062 -1.960938 6.40625 -1.703125 C 5.894531 -1.453125 5.410156 -1.164062 4.953125 -0.84375 C 4.710938 -0.675781 4.488281 -0.503906 4.28125 -0.328125 C 4.21875 -0.273438 4.132812 -0.222656 4.03125 -0.171875 C 3.925781 -0.128906 3.785156 -0.109375 3.609375 -0.109375 C 3.441406 -0.109375 3.300781 -0.132812 3.1875 -0.1875 C 3.070312 -0.25 2.976562 -0.320312 2.90625 -0.40625 C 2.832031 -0.488281 2.773438 -0.570312 2.734375 -0.65625 C 2.703125 -0.75 2.675781 -0.816406 2.65625 -0.859375 C 2.632812 -1.078125 2.625 -1.300781 2.625 -1.53125 C 2.625 -1.757812 2.617188 -1.976562 2.609375 -2.1875 C 2.597656 -2.625 2.59375 -3.0625 2.59375 -3.5 C 2.59375 -3.945312 2.59375 -4.390625 2.59375 -4.828125 C 2.59375 -5.523438 2.59375 -6.226562 2.59375 -6.9375 C 2.601562 -7.644531 2.613281 -8.351562 2.625 -9.0625 L 1.859375 -9.09375 C 1.671875 -9.09375 1.515625 -9.125 1.390625 -9.1875 C 1.273438 -9.257812 1.179688 -9.335938 1.109375 -9.421875 C 1.046875 -9.503906 1 -9.59375 0.96875 -9.6875 C 0.9375 -9.78125 0.921875 -9.863281 0.921875 -9.9375 C 0.921875 -10.007812 0.9375 -10.09375 0.96875 -10.1875 C 1 -10.289062 1.050781 -10.378906 1.125 -10.453125 C 1.207031 -10.535156 1.304688 -10.601562 1.421875 -10.65625 C 1.546875 -10.707031 1.703125 -10.734375 1.890625 -10.734375 L 3.609375 -10.71875 C 3.929688 -10.707031 4.15625 -10.617188 4.28125 -10.453125 C 4.414062 -10.296875 4.492188 -10.15625 4.515625 -10.03125 C 4.523438 -9.96875 4.53125 -9.898438 4.53125 -9.828125 C 4.53125 -9.765625 4.53125 -9.703125 4.53125 -9.640625 L 4.53125 -9.375 C 4.53125 -8.625 4.523438 -7.867188 4.515625 -7.109375 C 4.503906 -6.359375 4.5 -5.601562 4.5 -4.84375 C 4.5 -4.476562 4.5 -4.113281 4.5 -3.75 C 4.5 -3.394531 4.503906 -3.03125 4.515625 -2.65625 C 5.046875 -2.976562 5.601562 -3.265625 6.1875 -3.515625 C 6.769531 -3.765625 7.367188 -4 7.984375 -4.21875 Z M 7.875 -9.953125 "/></g></g></g><g fill="#ffffff" fill-opacity="1"><g transform="translate(55.921875, 22.20627)"><g><path d="M 7.03125 -2.234375 C 7.050781 -2.703125 7.066406 -3.164062 7.078125 -3.625 C 7.097656 -4.09375 7.113281 -4.5625 7.125 -5.03125 C 7.144531 -5.582031 7.164062 -6.128906 7.1875 -6.671875 C 7.207031 -7.210938 7.226562 -7.757812 7.25 -8.3125 C 7.269531 -8.582031 7.28125 -8.847656 7.28125 -9.109375 C 7.28125 -9.378906 7.300781 -9.648438 7.34375 -9.921875 C 7.351562 -9.992188 7.375 -10.070312 7.40625 -10.15625 C 7.445312 -10.238281 7.503906 -10.320312 7.578125 -10.40625 C 7.648438 -10.488281 7.75 -10.554688 7.875 -10.609375 C 8 -10.671875 8.148438 -10.703125 8.328125 -10.703125 C 8.515625 -10.703125 8.671875 -10.664062 8.796875 -10.59375 C 8.921875 -10.53125 9.019531 -10.453125 9.09375 -10.359375 C 9.164062 -10.265625 9.210938 -10.171875 9.234375 -10.078125 C 9.253906 -9.984375 9.265625 -9.910156 9.265625 -9.859375 C 9.234375 -9.046875 9.203125 -8.226562 9.171875 -7.40625 C 9.140625 -6.59375 9.113281 -5.78125 9.09375 -4.96875 C 9.0625 -4.457031 9.035156 -3.941406 9.015625 -3.421875 C 9.003906 -2.910156 8.984375 -2.398438 8.953125 -1.890625 C 8.929688 -1.628906 8.921875 -1.367188 8.921875 -1.109375 C 8.921875 -0.859375 8.910156 -0.601562 8.890625 -0.34375 C 8.878906 -0.269531 8.851562 -0.1875 8.8125 -0.09375 C 8.769531 -0.0078125 8.710938 0.0703125 8.640625 0.15625 C 8.566406 0.238281 8.46875 0.304688 8.34375 0.359375 C 8.226562 0.421875 8.070312 0.453125 7.875 0.453125 C 7.675781 0.453125 7.515625 0.410156 7.390625 0.328125 C 7.265625 0.253906 7.171875 0.175781 7.109375 0.09375 C 6.992188 -0.0820312 6.9375 -0.253906 6.9375 -0.421875 L 6.9375 -0.515625 L 3.375 -0.28125 L 3.328125 -0.28125 C 3.003906 -0.28125 2.773438 -0.359375 2.640625 -0.515625 C 2.503906 -0.671875 2.421875 -0.816406 2.390625 -0.953125 C 2.347656 -1.085938 2.328125 -1.226562 2.328125 -1.375 L 2.328125 -1.65625 C 2.328125 -2.28125 2.34375 -2.890625 2.375 -3.484375 C 2.40625 -4.085938 2.429688 -4.703125 2.453125 -5.328125 C 2.484375 -5.941406 2.515625 -6.546875 2.546875 -7.140625 C 2.578125 -7.742188 2.625 -8.34375 2.6875 -8.9375 L 1.796875 -9.015625 C 1.628906 -9.023438 1.488281 -9.0625 1.375 -9.125 C 1.269531 -9.195312 1.179688 -9.28125 1.109375 -9.375 C 1.046875 -9.46875 1 -9.554688 0.96875 -9.640625 C 0.9375 -9.734375 0.921875 -9.8125 0.921875 -9.875 C 0.921875 -9.9375 0.9375 -10.019531 0.96875 -10.125 C 1.007812 -10.226562 1.070312 -10.328125 1.15625 -10.421875 C 1.238281 -10.515625 1.347656 -10.59375 1.484375 -10.65625 C 1.617188 -10.726562 1.785156 -10.75 1.984375 -10.71875 L 3.8125 -10.578125 C 3.988281 -10.566406 4.128906 -10.53125 4.234375 -10.46875 C 4.347656 -10.40625 4.4375 -10.328125 4.5 -10.234375 C 4.570312 -10.140625 4.625 -10.046875 4.65625 -9.953125 C 4.6875 -9.867188 4.703125 -9.789062 4.703125 -9.71875 C 4.703125 -9.664062 4.695312 -9.617188 4.6875 -9.578125 C 4.625 -9.109375 4.578125 -8.601562 4.546875 -8.0625 C 4.523438 -7.519531 4.503906 -7.003906 4.484375 -6.515625 C 4.429688 -5.785156 4.390625 -5.046875 4.359375 -4.296875 C 4.328125 -3.546875 4.300781 -2.800781 4.28125 -2.0625 Z M 7.03125 -2.234375 "/></g></g></g><g fill="#ffffff" fill-opacity="1"><g transform="translate(67.047376, 22.20627)"><g><path d="M 7.875 -9.953125 C 7.875 -10.015625 7.882812 -10.09375 7.90625 -10.1875 C 7.9375 -10.289062 7.988281 -10.382812 8.0625 -10.46875 C 8.132812 -10.5625 8.226562 -10.640625 8.34375 -10.703125 C 8.46875 -10.773438 8.625 -10.8125 8.8125 -10.8125 C 9 -10.8125 9.148438 -10.78125 9.265625 -10.71875 C 9.390625 -10.65625 9.488281 -10.578125 9.5625 -10.484375 C 9.632812 -10.398438 9.6875 -10.3125 9.71875 -10.21875 C 9.75 -10.125 9.765625 -10.039062 9.765625 -9.96875 L 9.859375 -4.796875 C 9.921875 -4.804688 9.984375 -4.816406 10.046875 -4.828125 C 10.109375 -4.835938 10.164062 -4.84375 10.21875 -4.84375 C 10.320312 -4.882812 10.441406 -4.90625 10.578125 -4.90625 C 10.773438 -4.90625 10.929688 -4.867188 11.046875 -4.796875 C 11.171875 -4.734375 11.265625 -4.65625 11.328125 -4.5625 C 11.398438 -4.46875 11.445312 -4.375 11.46875 -4.28125 C 11.5 -4.195312 11.515625 -4.125 11.515625 -4.0625 C 11.515625 -3.675781 11.28125 -3.410156 10.8125 -3.265625 C 10.75 -3.253906 10.6875 -3.242188 10.625 -3.234375 C 10.5625 -3.222656 10.503906 -3.207031 10.453125 -3.1875 C 10.347656 -3.164062 10.253906 -3.140625 10.171875 -3.109375 C 10.085938 -3.085938 9.992188 -3.066406 9.890625 -3.046875 L 9.9375 -0.953125 C 9.9375 -0.890625 9.921875 -0.804688 9.890625 -0.703125 C 9.859375 -0.609375 9.804688 -0.515625 9.734375 -0.421875 C 9.660156 -0.335938 9.5625 -0.265625 9.4375 -0.203125 C 9.3125 -0.140625 9.160156 -0.109375 8.984375 -0.109375 C 8.796875 -0.109375 8.640625 -0.140625 8.515625 -0.203125 C 8.390625 -0.265625 8.296875 -0.335938 8.234375 -0.421875 C 8.171875 -0.503906 8.125 -0.59375 8.09375 -0.6875 C 8.0625 -0.789062 8.046875 -0.875 8.046875 -0.9375 L 8 -2.40625 C 7.445312 -2.195312 6.914062 -1.960938 6.40625 -1.703125 C 5.894531 -1.453125 5.410156 -1.164062 4.953125 -0.84375 C 4.710938 -0.675781 4.488281 -0.503906 4.28125 -0.328125 C 4.21875 -0.273438 4.132812 -0.222656 4.03125 -0.171875 C 3.925781 -0.128906 3.785156 -0.109375 3.609375 -0.109375 C 3.441406 -0.109375 3.300781 -0.132812 3.1875 -0.1875 C 3.070312 -0.25 2.976562 -0.320312 2.90625 -0.40625 C 2.832031 -0.488281 2.773438 -0.570312 2.734375 -0.65625 C 2.703125 -0.75 2.675781 -0.816406 2.65625 -0.859375 C 2.632812 -1.078125 2.625 -1.300781 2.625 -1.53125 C 2.625 -1.757812 2.617188 -1.976562 2.609375 -2.1875 C 2.597656 -2.625 2.59375 -3.0625 2.59375 -3.5 C 2.59375 -3.945312 2.59375 -4.390625 2.59375 -4.828125 C 2.59375 -5.523438 2.59375 -6.226562 2.59375 -6.9375 C 2.601562 -7.644531 2.613281 -8.351562 2.625 -9.0625 L 1.859375 -9.09375 C 1.671875 -9.09375 1.515625 -9.125 1.390625 -9.1875 C 1.273438 -9.257812 1.179688 -9.335938 1.109375 -9.421875 C 1.046875 -9.503906 1 -9.59375 0.96875 -9.6875 C 0.9375 -9.78125 0.921875 -9.863281 0.921875 -9.9375 C 0.921875 -10.007812 0.9375 -10.09375 0.96875 -10.1875 C 1 -10.289062 1.050781 -10.378906 1.125 -10.453125 C 1.207031 -10.535156 1.304688 -10.601562 1.421875 -10.65625 C 1.546875 -10.707031 1.703125 -10.734375 1.890625 -10.734375 L 3.609375 -10.71875 C 3.929688 -10.707031 4.15625 -10.617188 4.28125 -10.453125 C 4.414062 -10.296875 4.492188 -10.15625 4.515625 -10.03125 C 4.523438 -9.96875 4.53125 -9.898438 4.53125 -9.828125 C 4.53125 -9.765625 4.53125 -9.703125 4.53125 -9.640625 L 4.53125 -9.375 C 4.53125 -8.625 4.523438 -7.867188 4.515625 -7.109375 C 4.503906 -6.359375 4.5 -5.601562 4.5 -4.84375 C 4.5 -4.476562 4.5 -4.113281 4.5 -3.75 C 4.5 -3.394531 4.503906 -3.03125 4.515625 -2.65625 C 5.046875 -2.976562 5.601562 -3.265625 6.1875 -3.515625 C 6.769531 -3.765625 7.367188 -4 7.984375 -4.21875 Z M 7.875 -9.953125 "/></g></g></g><g fill="#ffffff" fill-opacity="1"><g transform="translate(80.173996, 22.20627)"><g><path d="M 1.875 -9.09375 C 1.6875 -9.09375 1.53125 -9.125 1.40625 -9.1875 C 1.289062 -9.257812 1.195312 -9.335938 1.125 -9.421875 C 1.050781 -9.503906 1 -9.59375 0.96875 -9.6875 C 0.945312 -9.78125 0.9375 -9.859375 0.9375 -9.921875 C 0.9375 -9.972656 0.953125 -10.046875 0.984375 -10.140625 C 1.015625 -10.242188 1.066406 -10.34375 1.140625 -10.4375 C 1.210938 -10.53125 1.304688 -10.609375 1.421875 -10.671875 C 1.546875 -10.734375 1.703125 -10.765625 1.890625 -10.765625 L 4.265625 -10.71875 C 4.453125 -10.71875 4.609375 -10.679688 4.734375 -10.609375 C 4.859375 -10.546875 4.953125 -10.460938 5.015625 -10.359375 C 5.085938 -10.265625 5.132812 -10.171875 5.15625 -10.078125 C 5.1875 -9.992188 5.203125 -9.921875 5.203125 -9.859375 C 5.203125 -9.628906 5.191406 -9.394531 5.171875 -9.15625 C 5.148438 -8.925781 5.132812 -8.695312 5.125 -8.46875 C 5.113281 -7.945312 5.101562 -7.429688 5.09375 -6.921875 C 5.082031 -6.410156 5.066406 -5.890625 5.046875 -5.359375 C 5.035156 -5.203125 5.03125 -5.046875 5.03125 -4.890625 C 5.03125 -4.734375 5.03125 -4.578125 5.03125 -4.421875 C 5.613281 -4.210938 6.175781 -3.960938 6.71875 -3.671875 C 7.269531 -3.378906 7.789062 -3.070312 8.28125 -2.75 C 8.300781 -3.476562 8.316406 -4.203125 8.328125 -4.921875 C 8.347656 -5.640625 8.367188 -6.367188 8.390625 -7.109375 C 8.398438 -7.566406 8.410156 -8.03125 8.421875 -8.5 C 8.441406 -8.976562 8.453125 -9.453125 8.453125 -9.921875 C 8.453125 -9.992188 8.460938 -10.078125 8.484375 -10.171875 C 8.515625 -10.265625 8.566406 -10.351562 8.640625 -10.4375 C 8.710938 -10.519531 8.8125 -10.585938 8.9375 -10.640625 C 9.0625 -10.703125 9.21875 -10.734375 9.40625 -10.734375 C 9.582031 -10.734375 9.734375 -10.703125 9.859375 -10.640625 C 9.984375 -10.585938 10.082031 -10.519531 10.15625 -10.4375 C 10.226562 -10.351562 10.273438 -10.265625 10.296875 -10.171875 C 10.328125 -10.078125 10.34375 -9.992188 10.34375 -9.921875 C 10.34375 -8.972656 10.328125 -8.03125 10.296875 -7.09375 C 10.265625 -6.164062 10.234375 -5.234375 10.203125 -4.296875 L 10.15625 -2.125 C 10.15625 -1.914062 10.15625 -1.703125 10.15625 -1.484375 C 10.15625 -1.273438 10.140625 -1.066406 10.109375 -0.859375 C 10.109375 -0.816406 10.09375 -0.75 10.0625 -0.65625 C 10.039062 -0.5625 9.988281 -0.46875 9.90625 -0.375 C 9.832031 -0.289062 9.738281 -0.21875 9.625 -0.15625 C 9.507812 -0.101562 9.363281 -0.078125 9.1875 -0.078125 C 9 -0.078125 8.851562 -0.101562 8.75 -0.15625 C 8.644531 -0.207031 8.5625 -0.265625 8.5 -0.328125 C 8.382812 -0.429688 8.273438 -0.523438 8.171875 -0.609375 C 8.066406 -0.691406 7.960938 -0.78125 7.859375 -0.875 C 7.453125 -1.207031 7.003906 -1.519531 6.515625 -1.8125 C 6.023438 -2.113281 5.519531 -2.378906 5 -2.609375 C 4.976562 -2.421875 4.96875 -2.234375 4.96875 -2.046875 C 4.96875 -1.859375 4.960938 -1.671875 4.953125 -1.484375 C 4.941406 -1.347656 4.9375 -1.21875 4.9375 -1.09375 C 4.945312 -0.976562 4.941406 -0.851562 4.921875 -0.71875 C 4.910156 -0.65625 4.882812 -0.582031 4.84375 -0.5 C 4.8125 -0.414062 4.757812 -0.332031 4.6875 -0.25 C 4.613281 -0.164062 4.515625 -0.0976562 4.390625 -0.046875 C 4.265625 0.00390625 4.109375 0.03125 3.921875 0.03125 C 3.710938 0.03125 3.550781 -0.0078125 3.4375 -0.09375 C 3.332031 -0.175781 3.25 -0.253906 3.1875 -0.328125 C 3.082031 -0.503906 3.03125 -0.671875 3.03125 -0.828125 C 3.03125 -0.960938 3.03125 -1.101562 3.03125 -1.25 C 3.039062 -1.394531 3.050781 -1.535156 3.0625 -1.671875 L 3.125 -3.265625 C 2.988281 -3.304688 2.863281 -3.34375 2.75 -3.375 C 2.632812 -3.40625 2.507812 -3.429688 2.375 -3.453125 C 2.3125 -3.472656 2.234375 -3.488281 2.140625 -3.5 C 2.054688 -3.519531 1.984375 -3.539062 1.921875 -3.5625 C 1.679688 -3.625 1.503906 -3.726562 1.390625 -3.875 C 1.285156 -4.019531 1.234375 -4.175781 1.234375 -4.34375 C 1.234375 -4.40625 1.242188 -4.484375 1.265625 -4.578125 C 1.285156 -4.671875 1.332031 -4.757812 1.40625 -4.84375 C 1.488281 -4.925781 1.585938 -5 1.703125 -5.0625 C 1.828125 -5.132812 1.984375 -5.171875 2.171875 -5.171875 C 2.234375 -5.171875 2.300781 -5.164062 2.375 -5.15625 C 2.445312 -5.15625 2.515625 -5.148438 2.578125 -5.140625 C 2.648438 -5.117188 2.722656 -5.097656 2.796875 -5.078125 C 2.867188 -5.066406 2.945312 -5.054688 3.03125 -5.046875 L 3.140625 -5 C 3.171875 -5.695312 3.191406 -6.378906 3.203125 -7.046875 C 3.210938 -7.722656 3.226562 -8.40625 3.25 -9.09375 Z M 1.875 -9.09375 "/></g></g></g><g fill="#ffffff" fill-opacity="1"><g transform="translate(92.859998, 22.20627)"><g><path d="M 6.890625 -2.125 C 6.753906 -2.550781 6.660156 -2.988281 6.609375 -3.4375 C 6.566406 -3.894531 6.546875 -4.34375 6.546875 -4.78125 C 6.546875 -5.5 6.601562 -6.210938 6.71875 -6.921875 C 6.832031 -7.628906 6.96875 -8.34375 7.125 -9.0625 L 5.75 -9.0625 C 5.34375 -9.0625 4.9375 -9.0625 4.53125 -9.0625 C 4.125 -9.0625 3.722656 -9.054688 3.328125 -9.046875 L 2.65625 -9.046875 C 2.5625 -9.035156 2.460938 -9.03125 2.359375 -9.03125 C 2.265625 -9.03125 2.171875 -9.023438 2.078125 -9.015625 C 2.035156 -9.003906 1.972656 -9 1.890625 -9 C 1.703125 -9 1.546875 -9.03125 1.421875 -9.09375 C 1.304688 -9.15625 1.210938 -9.226562 1.140625 -9.3125 C 1.078125 -9.40625 1.03125 -9.5 1 -9.59375 C 0.96875 -9.6875 0.953125 -9.765625 0.953125 -9.828125 C 0.953125 -9.984375 1.003906 -10.140625 1.109375 -10.296875 C 1.210938 -10.453125 1.394531 -10.5625 1.65625 -10.625 C 1.71875 -10.644531 1.773438 -10.65625 1.828125 -10.65625 C 1.878906 -10.664062 1.9375 -10.671875 2 -10.671875 C 2.0625 -10.679688 2.128906 -10.6875 2.203125 -10.6875 C 2.285156 -10.6875 2.367188 -10.691406 2.453125 -10.703125 C 2.628906 -10.710938 2.820312 -10.71875 3.03125 -10.71875 C 3.238281 -10.71875 3.445312 -10.71875 3.65625 -10.71875 L 7.890625 -10.71875 C 7.953125 -10.71875 8.007812 -10.710938 8.0625 -10.703125 C 8.125 -10.703125 8.175781 -10.703125 8.21875 -10.703125 C 8.28125 -10.691406 8.332031 -10.679688 8.375 -10.671875 C 8.425781 -10.671875 8.460938 -10.671875 8.484375 -10.671875 C 8.753906 -10.609375 8.941406 -10.492188 9.046875 -10.328125 C 9.160156 -10.160156 9.21875 -10 9.21875 -9.84375 C 9.21875 -9.8125 9.210938 -9.785156 9.203125 -9.765625 C 9.203125 -9.742188 9.203125 -9.71875 9.203125 -9.6875 C 9.023438 -8.875 8.851562 -8.054688 8.6875 -7.234375 C 8.53125 -6.421875 8.453125 -5.601562 8.453125 -4.78125 C 8.453125 -4.125 8.507812 -3.507812 8.625 -2.9375 C 8.664062 -2.726562 8.71875 -2.53125 8.78125 -2.34375 C 8.84375 -2.164062 8.929688 -2 9.046875 -1.84375 C 9.171875 -1.675781 9.234375 -1.507812 9.234375 -1.34375 C 9.234375 -1.207031 9.164062 -1.035156 9.03125 -0.828125 C 8.90625 -0.628906 8.664062 -0.519531 8.3125 -0.5 L 3.78125 -0.375 C 3.59375 -0.375 3.4375 -0.398438 3.3125 -0.453125 C 3.1875 -0.515625 3.085938 -0.585938 3.015625 -0.671875 C 2.941406 -0.765625 2.882812 -0.859375 2.84375 -0.953125 C 2.8125 -1.054688 2.796875 -1.132812 2.796875 -1.1875 L 2.796875 -4.75 L 1.890625 -4.75 C 1.703125 -4.75 1.546875 -4.78125 1.421875 -4.84375 C 1.304688 -4.914062 1.210938 -4.992188 1.140625 -5.078125 C 1.078125 -5.171875 1.03125 -5.265625 1 -5.359375 C 0.96875 -5.460938 0.953125 -5.539062 0.953125 -5.59375 C 0.953125 -5.757812 1.023438 -5.9375 1.171875 -6.125 C 1.316406 -6.320312 1.5625 -6.421875 1.90625 -6.421875 L 3.765625 -6.40625 C 4.117188 -6.394531 4.363281 -6.285156 4.5 -6.078125 C 4.632812 -5.878906 4.703125 -5.710938 4.703125 -5.578125 L 4.703125 -2.0625 Z M 6.890625 -2.125 "/></g></g></g><g fill="#ffffff" fill-opacity="1"><g transform="translate(105.145755, 23.2714)"><g><path d="M -5.328125 -16.125 C -5.328125 -16.195312 -5.304688 -16.28125 -5.265625 -16.375 C -5.234375 -16.476562 -5.179688 -16.566406 -5.109375 -16.640625 C -5.035156 -16.722656 -4.9375 -16.796875 -4.8125 -16.859375 C -4.6875 -16.921875 -4.53125 -16.953125 -4.34375 -16.953125 C -4.164062 -16.953125 -4.015625 -16.914062 -3.890625 -16.84375 C -3.765625 -16.78125 -3.664062 -16.703125 -3.59375 -16.609375 C -3.519531 -16.515625 -3.46875 -16.421875 -3.4375 -16.328125 C -3.40625 -16.234375 -3.390625 -16.15625 -3.390625 -16.09375 C -3.390625 -15.925781 -3.394531 -15.757812 -3.40625 -15.59375 C -3.425781 -15.4375 -3.441406 -15.273438 -3.453125 -15.109375 C -3.273438 -15.015625 -3.15625 -14.894531 -3.09375 -14.75 C -3.03125 -14.613281 -3 -14.488281 -3 -14.375 C -3 -14.3125 -3.007812 -14.226562 -3.03125 -14.125 C -3.0625 -14.03125 -3.113281 -13.9375 -3.1875 -13.84375 C -3.269531 -13.757812 -3.375 -13.6875 -3.5 -13.625 C -3.625 -13.5625 -3.78125 -13.53125 -3.96875 -13.53125 L -8.875 -13.546875 C -9.050781 -13.546875 -9.203125 -13.578125 -9.328125 -13.640625 C -9.453125 -13.710938 -9.550781 -13.796875 -9.625 -13.890625 C -9.695312 -13.984375 -9.75 -14.078125 -9.78125 -14.171875 C -9.8125 -14.273438 -9.828125 -14.351562 -9.828125 -14.40625 C -9.828125 -14.46875 -9.8125 -14.546875 -9.78125 -14.640625 C -9.75 -14.742188 -9.691406 -14.84375 -9.609375 -14.9375 C -9.523438 -15.03125 -9.421875 -15.101562 -9.296875 -15.15625 C -9.179688 -15.21875 -9.03125 -15.25 -8.84375 -15.25 L -5.375 -15.21875 Z M -5.328125 -16.125 "/></g></g></g><g fill="#ffffff" fill-opacity="1"><g transform="translate(104.628054, 22.20627)"><g><path d="M 7.875 -9.953125 C 7.875 -10.015625 7.882812 -10.09375 7.90625 -10.1875 C 7.9375 -10.289062 7.988281 -10.382812 8.0625 -10.46875 C 8.132812 -10.5625 8.226562 -10.640625 8.34375 -10.703125 C 8.46875 -10.773438 8.625 -10.8125 8.8125 -10.8125 C 9 -10.8125 9.148438 -10.78125 9.265625 -10.71875 C 9.390625 -10.65625 9.488281 -10.578125 9.5625 -10.484375 C 9.632812 -10.398438 9.6875 -10.3125 9.71875 -10.21875 C 9.75 -10.125 9.765625 -10.039062 9.765625 -9.96875 L 9.859375 -4.796875 C 9.921875 -4.804688 9.984375 -4.816406 10.046875 -4.828125 C 10.109375 -4.835938 10.164062 -4.84375 10.21875 -4.84375 C 10.320312 -4.882812 10.441406 -4.90625 10.578125 -4.90625 C 10.773438 -4.90625 10.929688 -4.867188 11.046875 -4.796875 C 11.171875 -4.734375 11.265625 -4.65625 11.328125 -4.5625 C 11.398438 -4.46875 11.445312 -4.375 11.46875 -4.28125 C 11.5 -4.195312 11.515625 -4.125 11.515625 -4.0625 C 11.515625 -3.675781 11.28125 -3.410156 10.8125 -3.265625 C 10.75 -3.253906 10.6875 -3.242188 10.625 -3.234375 C 10.5625 -3.222656 10.503906 -3.207031 10.453125 -3.1875 C 10.347656 -3.164062 10.253906 -3.140625 10.171875 -3.109375 C 10.085938 -3.085938 9.992188 -3.066406 9.890625 -3.046875 L 9.9375 -0.953125 C 9.9375 -0.890625 9.921875 -0.804688 9.890625 -0.703125 C 9.859375 -0.609375 9.804688 -0.515625 9.734375 -0.421875 C 9.660156 -0.335938 9.5625 -0.265625 9.4375 -0.203125 C 9.3125 -0.140625 9.160156 -0.109375 8.984375 -0.109375 C 8.796875 -0.109375 8.640625 -0.140625 8.515625 -0.203125 C 8.390625 -0.265625 8.296875 -0.335938 8.234375 -0.421875 C 8.171875 -0.503906 8.125 -0.59375 8.09375 -0.6875 C 8.0625 -0.789062 8.046875 -0.875 8.046875 -0.9375 L 8 -2.40625 C 7.445312 -2.195312 6.914062 -1.960938 6.40625 -1.703125 C 5.894531 -1.453125 5.410156 -1.164062 4.953125 -0.84375 C 4.710938 -0.675781 4.488281 -0.503906 4.28125 -0.328125 C 4.21875 -0.273438 4.132812 -0.222656 4.03125 -0.171875 C 3.925781 -0.128906 3.785156 -0.109375 3.609375 -0.109375 C 3.441406 -0.109375 3.300781 -0.132812 3.1875 -0.1875 C 3.070312 -0.25 2.976562 -0.320312 2.90625 -0.40625 C 2.832031 -0.488281 2.773438 -0.570312 2.734375 -0.65625 C 2.703125 -0.75 2.675781 -0.816406 2.65625 -0.859375 C 2.632812 -1.078125 2.625 -1.300781 2.625 -1.53125 C 2.625 -1.757812 2.617188 -1.976562 2.609375 -2.1875 C 2.597656 -2.625 2.59375 -3.0625 2.59375 -3.5 C 2.59375 -3.945312 2.59375 -4.390625 2.59375 -4.828125 C 2.59375 -5.523438 2.59375 -6.226562 2.59375 -6.9375 C 2.601562 -7.644531 2.613281 -8.351562 2.625 -9.0625 L 1.859375 -9.09375 C 1.671875 -9.09375 1.515625 -9.125 1.390625 -9.1875 C 1.273438 -9.257812 1.179688 -9.335938 1.109375 -9.421875 C 1.046875 -9.503906 1 -9.59375 0.96875 -9.6875 C 0.9375 -9.78125 0.921875 -9.863281 0.921875 -9.9375 C 0.921875 -10.007812 0.9375 -10.09375 0.96875 -10.1875 C 1 -10.289062 1.050781 -10.378906 1.125 -10.453125 C 1.207031 -10.535156 1.304688 -10.601562 1.421875 -10.65625 C 1.546875 -10.707031 1.703125 -10.734375 1.890625 -10.734375 L 3.609375 -10.71875 C 3.929688 -10.707031 4.15625 -10.617188 4.28125 -10.453125 C 4.414062 -10.296875 4.492188 -10.15625 4.515625 -10.03125 C 4.523438 -9.96875 4.53125 -9.898438 4.53125 -9.828125 C 4.53125 -9.765625 4.53125 -9.703125 4.53125 -9.640625 L 4.53125 -9.375 C 4.53125 -8.625 4.523438 -7.867188 4.515625 -7.109375 C 4.503906 -6.359375 4.5 -5.601562 4.5 -4.84375 C 4.5 -4.476562 4.5 -4.113281 4.5 -3.75 C 4.5 -3.394531 4.503906 -3.03125 4.515625 -2.65625 C 5.046875 -2.976562 5.601562 -3.265625 6.1875 -3.515625 C 6.769531 -3.765625 7.367188 -4 7.984375 -4.21875 Z M 7.875 -9.953125 "/></g></g></g><g clip-path="url(#786d7386aa)"><g clip-path="url(#978de70911)"><g clip-path="url(#36ef1a913e)"><path fill="#ffffff" d="M 13.75 2.753906 L 13.824219 2.753906 C 13.832031 2.753906 13.839844 2.757812 13.847656 2.757812 L 13.859375 2.59375 C 13.859375 2.582031 13.863281 2.570312 13.867188 2.5625 C 13.878906 2.539062 13.90625 2.523438 13.9375 2.523438 L 14.164062 2.539062 L 14.21875 2.144531 C 14.21875 2.136719 14.222656 2.128906 14.226562 2.121094 C 14.226562 2.121094 14.230469 2.121094 14.230469 2.117188 L 14.253906 1.941406 L 13.875 1.886719 Z M 13.578125 2.753906 L 13.601562 2.753906 L 13.699219 2.070312 L 13.558594 2.050781 L 13.535156 2.238281 Z M 13.234375 2.882812 L 13.441406 2.882812 L 13.367188 2.042969 L 13.160156 2.058594 Z M 14.535156 2.640625 L 14.433594 4.160156 L 14.699219 2.289062 L 14.355469 2.238281 L 14.3125 2.550781 L 14.46875 2.5625 C 14.507812 2.5625 14.539062 2.601562 14.535156 2.640625 Z M 13.59375 2.902344 L 13.734375 4.46875 L 13.757812 4.121094 L 13.75 2.902344 Z M 12.632812 2.105469 L 12.855469 4.589844 L 12.847656 2.957031 C 12.847656 2.945312 12.851562 2.933594 12.855469 2.921875 C 12.867188 2.902344 12.890625 2.882812 12.921875 2.882812 L 13.085938 2.882812 L 13.015625 2.074219 Z M 11.445312 2.453125 L 11.734375 5.65625 L 11.597656 3.199219 C 11.597656 3.1875 11.601562 3.171875 11.605469 3.160156 C 11.617188 3.140625 11.640625 3.125 11.667969 3.125 L 11.890625 3.113281 L 11.828125 2.421875 Z M 14.304688 6.132812 L 14.199219 7.730469 L 14.921875 2.636719 C 14.921875 2.628906 14.925781 2.621094 14.929688 2.613281 C 14.933594 2.601562 14.941406 2.59375 14.949219 2.589844 C 14.96875 2.578125 14.988281 2.570312 15.003906 2.574219 L 15.195312 2.601562 L 15.230469 2.339844 L 14.851562 2.285156 Z M 13.820312 5.421875 L 14.039062 7.890625 L 14.382812 2.703125 L 14 2.675781 Z M 14.152344 9.125 L 14.300781 10.800781 L 14.636719 8.433594 L 15.328125 2.792969 C 15.328125 2.785156 15.332031 2.777344 15.332031 2.773438 L 15.058594 2.730469 Z M 12.503906 7.304688 L 12.886719 11.59375 L 12.867188 7.054688 L 12.441406 2.308594 L 12.058594 2.339844 L 12.125 3.097656 L 12.199219 3.097656 C 12.238281 3.09375 12.273438 3.125 12.277344 3.164062 Z M 14.382812 11.722656 L 14.476562 12.742188 L 15.710938 4.035156 L 15.84375 2.933594 L 15.464844 2.882812 Z M 14.535156 13.386719 L 14.683594 15.066406 L 16.339844 3.402344 L 15.957031 3.347656 Z M 10.976562 3.390625 L 12.390625 17.644531 L 12.03125 11.078125 L 11.289062 2.800781 L 10.90625 2.832031 L 10.953125 3.34375 C 10.964844 3.355469 10.972656 3.371094 10.976562 3.390625 Z M 11.015625 13.324219 L 11.789062 18.472656 L 11.035156 10.867188 L 9.972656 3.796875 L 9.59375 3.851562 Z M 14.492188 21.976562 C 14.648438 21.851562 14.765625 21.742188 14.757812 21.539062 C 14.757812 21.488281 14.753906 21.4375 14.746094 21.386719 C 14.742188 21.359375 14.742188 21.332031 14.738281 21.304688 L 13.550781 8.054688 L 13.570312 12.59375 L 14.265625 20.328125 C 14.316406 20.894531 14.40625 21.445312 14.492188 21.976562 Z M 14.828125 21.835938 C 14.835938 21.871094 14.839844 21.910156 14.847656 21.945312 C 15 21.820312 15.117188 21.710938 15.113281 21.507812 C 15.113281 21.457031 15.105469 21.40625 15.101562 21.355469 C 15.097656 21.328125 15.09375 21.300781 15.09375 21.273438 L 13.53125 3.855469 L 13.542969 6.304688 L 14.886719 21.292969 C 14.886719 21.320312 14.890625 21.34375 14.894531 21.371094 C 14.898438 21.425781 14.90625 21.480469 14.90625 21.535156 C 14.910156 21.660156 14.878906 21.753906 14.828125 21.835938 Z M 13.917969 22.210938 C 14.074219 22.082031 14.191406 21.976562 14.183594 21.773438 C 14.183594 21.722656 14.179688 21.671875 14.171875 21.617188 C 14.167969 21.589844 14.167969 21.566406 14.164062 21.539062 L 13.582031 15.058594 L 13.605469 19.597656 L 13.691406 20.5625 C 13.742188 21.125 13.832031 21.675781 13.917969 22.210938 Z M 13.765625 22.597656 C 13.761719 22.621094 13.757812 22.648438 13.753906 22.667969 C 13.804688 22.605469 13.839844 22.535156 13.84375 22.4375 C 13.84375 22.429688 13.84375 22.425781 13.84375 22.417969 C 13.84375 22.417969 13.84375 22.417969 13.839844 22.417969 C 13.820312 22.410156 13.804688 22.390625 13.796875 22.367188 L 13.773438 22.519531 C 13.773438 22.546875 13.769531 22.574219 13.765625 22.597656 Z M 11.152344 21.636719 C 11.332031 21.550781 11.472656 21.472656 11.511719 21.273438 C 11.523438 21.222656 11.527344 21.171875 11.535156 21.121094 C 11.535156 21.09375 11.539062 21.066406 11.542969 21.039062 L 11.59375 20.679688 C 11.609375 20.558594 11.625 20.4375 11.640625 20.316406 L 11.773438 19.371094 L 11.578125 18.0625 L 11.308594 19.984375 C 11.226562 20.542969 11.1875 21.097656 11.152344 21.636719 Z M 11.632812 21.992188 C 11.8125 21.902344 11.953125 21.824219 11.992188 21.625 C 12.003906 21.578125 12.007812 21.523438 12.015625 21.472656 C 12.019531 21.445312 12.023438 21.417969 12.027344 21.394531 L 12.03125 21.355469 C 12.035156 21.296875 12.039062 21.234375 12.046875 21.171875 L 11.851562 19.882812 L 11.789062 20.335938 C 11.707031 20.894531 11.667969 21.453125 11.632812 21.992188 Z M 12.136719 21.929688 C 12.132812 21.964844 12.132812 22 12.128906 22.035156 C 12.136719 22.035156 12.140625 22.03125 12.148438 22.027344 C 12.144531 21.996094 12.140625 21.960938 12.136719 21.929688 Z M 13.167969 22.980469 C 13.332031 22.867188 13.460938 22.769531 13.472656 22.566406 C 13.472656 22.515625 13.472656 22.464844 13.472656 22.414062 C 13.472656 22.386719 13.472656 22.359375 13.46875 22.332031 L 13.378906 3.03125 L 12.996094 3.03125 L 13.082031 21.320312 C 13.082031 21.882812 13.128906 22.441406 13.167969 22.980469 Z M 13.3125 23.058594 C 13.453125 22.984375 13.5625 22.902344 13.597656 22.734375 C 13.601562 22.710938 13.605469 22.6875 13.609375 22.664062 C 13.570312 22.851562 13.445312 22.964844 13.3125 23.058594 Z M 10.839844 21.800781 C 10.898438 21.773438 10.949219 21.746094 11 21.714844 L 11.003906 21.644531 C 11.039062 21.097656 11.078125 20.53125 11.160156 19.960938 L 11.503906 17.550781 L 11.429688 17.070312 L 10.992188 20.148438 C 10.914062 20.707031 10.875 21.261719 10.839844 21.800781 Z M 12.921875 23.1875 C 12.960938 23.15625 12.996094 23.128906 13.027344 23.097656 L 13.023438 23.011719 C 12.980469 22.464844 12.9375 21.898438 12.933594 21.320312 L 12.914062 17.519531 L 12.132812 3.246094 L 11.75 3.265625 L 12.75 21.53125 C 12.78125 22.09375 12.851562 22.648438 12.921875 23.1875 Z M 12.503906 23.367188 C 12.625 23.265625 12.722656 23.175781 12.753906 23.042969 C 12.691406 22.554688 12.632812 22.050781 12.605469 21.539062 L 12.574219 20.988281 L 10.835938 3.480469 L 10.453125 3.515625 L 10.789062 6.898438 L 12.261719 21.722656 C 12.316406 22.285156 12.410156 22.835938 12.503906 23.367188 Z M 12.613281 23.46875 C 12.621094 23.507812 12.628906 23.542969 12.636719 23.582031 C 12.710938 23.511719 12.777344 23.449219 12.820312 23.378906 C 12.804688 23.367188 12.792969 23.351562 12.792969 23.332031 L 12.789062 23.296875 C 12.738281 23.359375 12.675781 23.414062 12.613281 23.46875 Z M 12.574219 23.792969 C 12.546875 23.785156 12.527344 23.765625 12.523438 23.738281 L 12.496094 23.628906 C 12.492188 23.609375 12.488281 23.589844 12.484375 23.570312 C 12.46875 23.582031 12.449219 23.585938 12.429688 23.578125 C 12.402344 23.566406 12.382812 23.546875 12.378906 23.519531 L 12.363281 23.410156 C 12.320312 23.171875 12.277344 22.925781 12.238281 22.675781 C 12.230469 22.675781 12.222656 22.675781 12.210938 22.667969 C 12.191406 22.652344 12.179688 22.628906 12.179688 22.601562 L 12.1875 22.492188 C 12.191406 22.457031 12.191406 22.417969 12.195312 22.382812 C 12.1875 22.316406 12.175781 22.25 12.164062 22.183594 C 12.136719 22.195312 12.109375 22.210938 12.082031 22.226562 C 12.058594 22.238281 12.027344 22.238281 12.003906 22.222656 C 11.984375 22.207031 11.972656 22.183594 11.972656 22.15625 L 11.980469 22.042969 C 11.980469 22.007812 11.984375 21.972656 11.988281 21.933594 C 11.898438 22.023438 11.785156 22.082031 11.671875 22.136719 C 11.640625 22.152344 11.613281 22.167969 11.585938 22.179688 C 11.558594 22.191406 11.53125 22.191406 11.511719 22.175781 C 11.488281 22.164062 11.472656 22.136719 11.476562 22.109375 L 11.484375 22 C 11.496094 21.859375 11.503906 21.714844 11.515625 21.574219 C 11.421875 21.667969 11.304688 21.726562 11.1875 21.785156 C 11.160156 21.796875 11.132812 21.8125 11.101562 21.828125 C 11.101562 21.828125 11.097656 21.828125 11.09375 21.828125 C 11.023438 21.875 10.949219 21.914062 10.875 21.949219 C 10.847656 21.964844 10.820312 21.976562 10.789062 21.992188 C 10.765625 22.003906 10.738281 22.003906 10.714844 21.988281 C 10.695312 21.972656 10.679688 21.949219 10.683594 21.921875 L 10.6875 21.8125 C 10.726562 21.261719 10.765625 20.695312 10.847656 20.125 L 11.351562 16.558594 L 9.4375 3.800781 C 9.433594 3.785156 9.4375 3.769531 9.441406 3.753906 C 9.445312 3.75 9.445312 3.75 9.449219 3.746094 C 9.460938 3.730469 9.476562 3.71875 9.496094 3.714844 L 10.023438 3.640625 C 10.042969 3.636719 10.0625 3.640625 10.078125 3.652344 C 10.09375 3.664062 10.105469 3.683594 10.105469 3.703125 L 10.746094 7.941406 L 10.300781 3.457031 C 10.296875 3.441406 10.300781 3.425781 10.308594 3.414062 C 10.308594 3.410156 10.3125 3.40625 10.316406 3.402344 C 10.328125 3.386719 10.347656 3.378906 10.367188 3.375 L 10.800781 3.335938 L 10.75 2.769531 C 10.75 2.753906 10.753906 2.742188 10.761719 2.730469 C 10.761719 2.726562 10.765625 2.71875 10.769531 2.714844 C 10.78125 2.703125 10.800781 2.691406 10.820312 2.691406 L 11.316406 2.648438 L 11.292969 2.394531 C 11.289062 2.378906 11.292969 2.363281 11.300781 2.351562 C 11.300781 2.347656 11.304688 2.34375 11.308594 2.339844 C 11.320312 2.324219 11.339844 2.316406 11.359375 2.3125 L 11.886719 2.269531 C 11.894531 2.269531 11.898438 2.269531 11.90625 2.269531 C 11.90625 2.257812 11.90625 2.246094 11.914062 2.238281 C 11.914062 2.234375 11.917969 2.230469 11.921875 2.226562 C 11.933594 2.210938 11.953125 2.199219 11.972656 2.199219 L 12.488281 2.15625 L 12.476562 2.046875 C 12.476562 2.03125 12.480469 2.015625 12.488281 2.003906 C 12.488281 2 12.492188 1.996094 12.496094 1.992188 C 12.507812 1.976562 12.523438 1.96875 12.542969 1.96875 L 12.890625 1.9375 C 12.890625 1.9375 12.894531 1.933594 12.898438 1.933594 L 13.429688 1.890625 C 13.445312 1.886719 13.457031 1.894531 13.46875 1.898438 C 13.480469 1.894531 13.496094 1.890625 13.507812 1.894531 L 13.71875 1.925781 L 13.738281 1.792969 C 13.738281 1.78125 13.742188 1.773438 13.746094 1.765625 C 13.761719 1.742188 13.789062 1.722656 13.820312 1.730469 L 14.347656 1.804688 C 14.386719 1.8125 14.417969 1.847656 14.410156 1.890625 L 14.382812 2.09375 L 14.738281 2.148438 C 14.742188 2.144531 14.742188 2.144531 14.742188 2.144531 C 14.761719 2.128906 14.777344 2.125 14.796875 2.128906 L 15.324219 2.207031 C 15.363281 2.210938 15.394531 2.246094 15.386719 2.289062 L 15.339844 2.625 L 15.53125 2.652344 C 15.570312 2.65625 15.601562 2.695312 15.59375 2.734375 L 15.59375 2.75 L 15.9375 2.796875 C 15.976562 2.800781 16.007812 2.835938 16 2.875 L 15.960938 3.199219 L 16.429688 3.265625 C 16.472656 3.273438 16.5 3.308594 16.496094 3.351562 L 14.742188 15.710938 L 15.238281 21.261719 C 15.242188 21.285156 15.242188 21.3125 15.246094 21.339844 C 15.253906 21.394531 15.257812 21.449219 15.261719 21.503906 C 15.269531 21.789062 15.089844 21.9375 14.917969 22.082031 C 14.890625 22.101562 14.867188 22.121094 14.84375 22.140625 C 14.820312 22.160156 14.792969 22.164062 14.769531 22.15625 C 14.746094 22.144531 14.726562 22.125 14.722656 22.097656 L 14.703125 21.988281 C 14.660156 22.03125 14.609375 22.070312 14.5625 22.113281 C 14.539062 22.132812 14.511719 22.152344 14.488281 22.171875 C 14.46875 22.191406 14.441406 22.195312 14.417969 22.1875 C 14.390625 22.175781 14.371094 22.15625 14.367188 22.128906 L 14.347656 22.019531 C 14.34375 21.972656 14.335938 21.921875 14.328125 21.875 C 14.292969 22.089844 14.140625 22.21875 13.992188 22.339844 C 13.992188 22.375 13.992188 22.410156 13.992188 22.445312 C 13.976562 22.691406 13.832031 22.824219 13.675781 22.9375 C 13.582031 23.09375 13.425781 23.171875 13.273438 23.246094 C 13.246094 23.257812 13.214844 23.273438 13.1875 23.289062 C 13.164062 23.300781 13.132812 23.300781 13.113281 23.285156 C 13.097656 23.273438 13.089844 23.261719 13.085938 23.246094 C 13.0625 23.265625 13.035156 23.285156 13.011719 23.304688 C 12.96875 23.476562 12.839844 23.597656 12.714844 23.710938 C 12.691406 23.730469 12.667969 23.753906 12.644531 23.777344 C 12.625 23.796875 12.597656 23.800781 12.574219 23.792969 Z M 13.617188 22.578125 C 13.621094 22.550781 13.625 22.527344 13.628906 22.5 L 13.6875 22.09375 C 13.667969 22.140625 13.644531 22.183594 13.617188 22.222656 L 13.617188 22.332031 C 13.617188 22.359375 13.617188 22.382812 13.621094 22.410156 C 13.621094 22.464844 13.621094 22.519531 13.617188 22.578125 " fill-opacity="1" fill-rule="nonzero"/></g></g></g></svg>